<svg width="1000" height="1000" viewBox="0 0 1000 1000" fill="none" xmlns="http://www.w3.org/2000/svg">
<path d="M500 250C469.097 250 438.887 259.164 413.192 276.333C387.497 293.502 367.47 317.905 355.644 346.456C343.818 375.007 340.723 406.423 346.752 436.733C352.781 467.042 367.663 494.883 389.515 516.735C411.367 538.587 439.208 553.469 469.517 559.498C499.827 565.527 531.243 562.432 559.794 550.606C588.345 538.78 612.748 518.753 629.917 493.058C647.086 467.363 656.25 437.153 656.25 406.25C656.25 364.81 639.788 325.067 610.486 295.765C581.183 266.462 541.44 250 500 250ZM500 500C481.458 500 463.332 494.502 447.915 484.2C432.498 473.899 420.482 459.257 413.386 442.127C406.291 424.996 404.434 406.146 408.051 387.96C411.669 369.775 420.598 353.07 433.709 339.959C446.82 326.848 463.525 317.919 481.71 314.301C499.896 310.684 518.746 312.541 535.877 319.636C553.007 326.732 567.649 338.748 577.95 354.165C588.252 369.582 593.75 387.708 593.75 406.25C593.725 431.106 583.84 454.938 566.264 472.514C548.688 490.09 524.857 499.975 500 500Z" fill="white"/>
<path d="M500 62.5C413.471 62.5 328.885 88.1589 256.938 136.232C184.992 184.305 128.916 252.633 95.8029 332.576C62.6896 412.519 54.0256 500.485 70.9066 585.352C87.7877 670.219 129.455 748.174 190.641 809.359C251.826 870.545 329.782 912.213 414.648 929.094C499.515 945.975 587.482 937.311 667.424 904.197C747.367 871.084 815.695 815.008 863.768 743.062C911.841 671.115 937.5 586.529 937.5 500C937.368 384.008 891.232 272.805 809.213 190.787C727.195 108.768 615.992 62.6323 500 62.5ZM312.5 824.281V781.25C312.525 756.394 322.41 732.562 339.986 714.986C357.563 697.41 381.394 687.525 406.25 687.5H593.75C618.607 687.525 642.438 697.41 660.014 714.986C677.59 732.562 687.475 756.394 687.5 781.25V824.281C630.598 857.503 565.891 875.01 500 875.01C434.11 875.01 369.402 857.503 312.5 824.281ZM749.781 778.938C749.175 737.937 732.475 698.819 703.285 670.021C674.095 641.223 634.755 625.053 593.75 625H406.25C365.251 625.061 325.918 641.234 296.735 670.032C267.552 698.829 250.857 737.943 250.25 778.938C193.58 728.336 153.617 661.715 135.651 587.896C117.686 514.077 122.566 436.542 149.645 365.558C176.724 294.574 224.726 233.49 287.293 190.393C349.86 147.296 424.042 124.22 500.016 124.22C575.99 124.22 650.171 147.296 712.739 190.393C775.306 233.49 823.307 294.574 850.387 365.558C877.466 436.542 882.346 514.077 864.38 587.896C846.415 661.715 806.451 728.336 749.781 778.938Z" fill="white"/>
</svg>
