<svg width="1000" height="1000" viewBox="0 0 1000 1000" fill="none" xmlns="http://www.w3.org/2000/svg">
<path d="M83.3335 500C83.3335 303.583 83.3335 205.375 144.333 144.333C205.417 83.3333 303.583 83.3333 500 83.3333C696.417 83.3333 794.625 83.3333 855.625 144.333C916.667 205.417 916.667 303.583 916.667 500C916.667 696.417 916.667 794.625 855.625 855.625C794.667 916.667 696.417 916.667 500 916.667C303.583 916.667 205.375 916.667 144.333 855.625C83.3335 794.667 83.3335 696.417 83.3335 500Z" stroke="white" stroke-width="62.5"/>
<path d="M666.667 416.667C712.691 416.667 750 379.357 750 333.333C750 287.31 712.691 250 666.667 250C620.643 250 583.333 287.31 583.333 333.333C583.333 379.357 620.643 416.667 666.667 416.667Z" stroke="white" stroke-width="62.5"/>
<path d="M83.3335 520.833L156.334 456.958C174.631 440.961 198.323 432.514 222.614 433.326C246.904 434.138 269.979 444.15 287.167 461.333L465.917 640.083C479.788 653.952 498.106 662.483 517.648 664.175C537.19 665.866 556.702 660.611 572.75 649.333L585.209 640.583C608.358 624.324 636.339 616.399 664.576 618.102C692.814 619.804 719.639 631.035 740.667 649.958L875 770.833" stroke="white" stroke-width="62.5" stroke-linecap="round"/>
</svg>
