<svg width="1000" height="1000" viewBox="0 0 1000 1000" fill="none" xmlns="http://www.w3.org/2000/svg">
<path d="M497.917 750C512.5 750 524.834 744.958 534.917 734.875C545 724.792 550.028 712.472 550 697.917C549.972 683.361 544.945 671.028 534.917 660.917C524.889 650.806 512.556 645.778 497.917 645.833C483.278 645.889 470.959 650.931 460.959 660.958C450.959 670.986 445.917 683.306 445.834 697.917C445.75 712.528 450.792 724.861 460.959 734.917C471.125 744.972 483.445 750 497.917 750ZM500 916.667C442.361 916.667 388.195 905.722 337.5 883.833C286.806 861.944 242.709 832.264 205.209 794.792C167.709 757.319 138.028 713.222 116.167 662.5C94.3058 611.778 83.3613 557.611 83.3335 500C83.3058 442.389 94.2502 388.222 116.167 337.5C138.084 286.778 167.764 242.681 205.209 205.208C242.653 167.736 286.75 138.056 337.5 116.167C388.25 94.2778 442.417 83.3333 500 83.3333C557.584 83.3333 611.75 94.2778 662.5 116.167C713.25 138.056 757.348 167.736 794.792 205.208C832.236 242.681 861.931 286.778 883.875 337.5C905.82 388.222 916.75 442.389 916.667 500C916.584 557.611 905.639 611.778 883.834 662.5C862.028 713.222 832.348 757.319 794.792 794.792C757.236 832.264 713.139 861.958 662.5 883.875C611.861 905.792 557.695 916.722 500 916.667ZM500 833.333C593.056 833.333 671.875 801.042 736.459 736.458C801.042 671.875 833.334 593.056 833.334 500C833.334 406.944 801.042 328.125 736.459 263.542C671.875 198.958 593.056 166.667 500 166.667C406.945 166.667 328.125 198.958 263.542 263.542C198.959 328.125 166.667 406.944 166.667 500C166.667 593.056 198.959 671.875 263.542 736.458C328.125 801.042 406.945 833.333 500 833.333ZM504.167 320.833C521.528 320.833 536.639 326.389 549.5 337.5C562.361 348.611 568.778 362.5 568.75 379.167C568.75 394.444 564.07 407.986 554.709 419.792C545.347 431.597 534.75 442.708 522.917 453.125C506.945 467.014 492.889 482.292 480.75 498.958C468.611 515.625 462.528 534.375 462.5 555.208C462.5 564.931 466.153 573.097 473.459 579.708C480.764 586.319 489.264 589.611 498.959 589.583C509.375 589.583 518.236 586.111 525.542 579.167C532.847 572.222 537.528 563.542 539.584 553.125C542.361 538.542 548.611 525.528 558.334 514.083C568.056 502.639 578.472 491.694 589.584 481.25C605.556 465.972 619.278 449.306 630.75 431.25C642.222 413.194 647.945 393.056 647.917 370.833C647.917 335.417 633.514 306.431 604.709 283.875C575.903 261.319 542.389 250.028 504.167 250C477.778 250 452.611 255.556 428.667 266.667C404.722 277.778 386.486 294.792 373.959 317.708C369.097 326.042 367.542 334.903 369.292 344.292C371.042 353.681 375.722 360.792 383.334 365.625C393.056 371.181 403.125 372.917 413.542 370.833C423.959 368.75 432.639 362.847 439.584 353.125C447.222 342.708 456.778 334.722 468.25 329.167C479.722 323.611 491.695 320.833 504.167 320.833Z" fill="white"/>
</svg>
