<svg width="1000" height="1000" viewBox="0 0 1000 1000" fill="none" xmlns="http://www.w3.org/2000/svg">
<circle cx="499.671" cy="499.671" r="481.671" fill="#95FF00"/>
<path d="M278.761 720.727C278.761 720.727 622.118 377.372 722.09 277.4M278.761 720.727L278.761 573.085M278.761 720.727L426.404 720.727M722.09 277.4C722.09 335.058 722.089 425.042 722.089 425.042M722.09 277.4C664.432 277.4 574.447 277.4 574.447 277.4" stroke="black" stroke-width="75.3789" stroke-linecap="round"/>
<path d="M278.761 277.399C278.761 277.399 622.117 620.756 722.089 720.728M278.761 277.399L426.404 277.399M278.761 277.399L278.761 425.042M722.089 720.728C664.431 720.728 574.446 720.727 574.446 720.727M722.089 720.728C722.089 663.069 722.089 573.085 722.089 573.085" stroke="black" stroke-width="75.3789" stroke-linecap="round"/>
</svg>
