<svg width="3055" height="1000" viewBox="0 0 3055 1000" fill="none" xmlns="http://www.w3.org/2000/svg">
<g clip-path="url(#clip0_245_74)">
<circle cx="481.671" cy="499.671" r="481.671" fill="#95FF00"/>
<path d="M260.761 720.727C260.761 720.727 604.118 377.372 704.09 277.4M260.761 720.727L260.761 573.085M260.761 720.727L408.404 720.727M704.09 277.4C704.09 335.058 704.089 425.042 704.089 425.042M704.09 277.4C646.432 277.4 556.447 277.4 556.447 277.4" stroke="black" stroke-width="75.3789" stroke-linecap="round"/>
<path d="M260.762 277.399C260.762 277.399 604.118 620.756 704.089 720.728M260.762 277.399L408.404 277.399M260.762 277.399L260.762 425.042M704.089 720.728C646.431 720.728 556.447 720.727 556.447 720.727M704.089 720.728C704.089 663.069 704.089 573.085 704.089 573.085" stroke="black" stroke-width="75.3789" stroke-linecap="round"/>
<path d="M1421.93 204C1482.87 204 1533.04 224.439 1572.43 265.317C1612.57 306.195 1632.64 362.681 1632.64 434.775V777.034H1488.82V452.612C1488.82 415.45 1478.79 387.207 1458.72 367.883C1438.65 347.816 1411.9 337.782 1378.45 337.782C1341.29 337.782 1311.56 349.302 1289.26 372.343C1266.96 395.383 1255.82 429.944 1255.82 476.024V777.034H1112V219.608H1255.82V282.04C1290.75 230.013 1346.12 204 1421.93 204Z" fill="white"/>
<path d="M1743.17 557.408C1762.5 627.272 1814.89 662.205 1900.37 662.205C1955.37 662.205 1996.99 643.624 2025.23 606.462L2141.17 673.353C2086.18 752.879 2005.16 792.642 1898.14 792.642C1805.98 792.642 1732.02 764.771 1676.28 709.028C1620.54 653.286 1592.67 583.05 1592.67 498.321C1592.67 414.336 1620.17 344.471 1675.17 288.729C1730.17 232.243 1800.77 204 1886.99 204C1968.74 204 2036.01 232.243 2088.78 288.729C2142.29 345.215 2169.05 415.079 2169.05 498.321C2169.05 516.902 2167.19 536.598 2163.47 557.408H1743.17ZM1740.94 445.923H2025.23C2017.05 408.018 1999.96 379.775 1973.95 361.194C1948.68 342.613 1919.69 333.323 1886.99 333.323C1848.34 333.323 1816.38 343.357 1791.11 363.424C1765.84 382.748 1749.12 410.248 1740.94 445.923Z" fill="white"/>
<path d="M2606.89 777.034H2440.77L2320.37 607.577L2198.85 777.034H2032.74L2236.76 492.747L2041.66 219.608H2207.77L2320.37 376.802L2432.97 219.608H2597.97L2402.87 491.632L2606.89 777.034Z" fill="white"/>
<path d="M2969.48 707.914C2912.25 764.399 2842.38 792.642 2759.88 792.642C2677.38 792.642 2607.52 764.399 2550.29 707.914C2493.81 650.684 2465.56 580.82 2465.56 498.321C2465.56 415.822 2493.81 346.33 2550.29 289.844C2607.52 232.615 2677.38 204 2759.88 204C2842.38 204 2912.25 232.615 2969.48 289.844C3026.7 346.33 3055.32 415.822 3055.32 498.321C3055.32 580.82 3026.7 650.684 2969.48 707.914ZM2651.74 608.692C2680.73 637.678 2716.78 652.171 2759.88 652.171C2802.99 652.171 2839.04 637.678 2868.02 608.692C2897.01 579.705 2911.5 542.915 2911.5 498.321C2911.5 453.727 2897.01 416.937 2868.02 387.951C2839.04 358.965 2802.99 344.471 2759.88 344.471C2716.78 344.471 2680.73 358.965 2651.74 387.951C2623.5 416.937 2609.38 453.727 2609.38 498.321C2609.38 542.915 2623.5 579.705 2651.74 608.692Z" fill="white"/>
</g>
<defs>
<clipPath id="clip0_245_74">
<rect width="3055" height="1000" fill="white"/>
</clipPath>
</defs>
</svg>
