<svg width="1000" height="1000" viewBox="0 0 1000 1000" fill="none" xmlns="http://www.w3.org/2000/svg">
<path d="M791.667 708.333H208.333C162.375 708.333 125 745.708 125 791.667C125 837.625 162.375 875 208.333 875H791.667C837.625 875 875 837.625 875 791.667C875 745.708 837.625 708.333 791.667 708.333ZM791.667 416.667H208.333C162.375 416.667 125 454.042 125 500C125 545.958 162.375 583.333 208.333 583.333H791.667C837.625 583.333 875 545.958 875 500C875 454.042 837.625 416.667 791.667 416.667ZM791.667 125H208.333C162.375 125 125 162.375 125 208.333C125 254.292 162.375 291.667 208.333 291.667H791.667C837.625 291.667 875 254.292 875 208.333C875 162.375 837.625 125 791.667 125Z" fill="white"/>
</svg>
