<svg width="1000" height="1000" viewBox="0 0 1000 1000" fill="none" xmlns="http://www.w3.org/2000/svg">
<path fill-rule="evenodd" clip-rule="evenodd" d="M437.5 83.3334C381.025 83.3382 325.369 96.8486 275.177 122.737C224.985 148.626 181.712 186.142 148.968 232.156C116.224 278.17 94.9586 331.348 86.946 387.252C78.9334 443.156 84.406 500.165 102.907 553.524C121.408 606.883 152.402 655.044 193.301 693.989C234.201 732.933 283.821 761.532 338.021 777.4C392.222 793.268 449.431 795.944 504.876 785.205C560.321 774.466 612.393 750.623 656.75 715.667L808.916 867.833C816.775 875.423 827.3 879.623 838.225 879.528C849.15 879.433 859.6 875.051 867.326 867.326C875.051 859.601 879.433 849.15 879.528 838.225C879.623 827.3 875.423 816.775 867.833 808.917L715.667 656.75C756.833 604.526 782.465 541.767 789.629 475.655C796.793 409.544 785.2 342.751 756.176 282.921C727.152 223.09 681.87 172.64 625.512 137.343C569.155 102.046 503.998 83.3289 437.5 83.3334ZM166.666 437.5C166.666 365.671 195.201 296.783 245.992 245.992C296.783 195.201 365.67 166.667 437.5 166.667C509.329 166.667 578.217 195.201 629.008 245.992C679.799 296.783 708.333 365.671 708.333 437.5C708.333 509.33 679.799 578.217 629.008 629.008C578.217 679.799 509.329 708.333 437.5 708.333C365.67 708.333 296.783 679.799 245.992 629.008C195.201 578.217 166.666 509.33 166.666 437.5Z" fill="white"/>
</svg>
